<svg width="512" height="512" viewBox="0 0 512 512" fill="none" xmlns="http://www.w3.org/2000/svg">
  <rect width="512" height="512" rx="64" fill="#16a34a"/>
  <path d="M256 128C256 128 192 160 192 224C192 288 224 320 256 320C288 320 320 288 320 224C320 160 256 128 256 128Z" fill="#ffffff"/>
  <path d="M256 320C256 320 224 352 224 384C224 416 240 432 256 432C272 432 288 416 288 384C288 352 256 320 256 320Z" fill="#ffffff"/>
  <path d="M192 224C192 224 160 256 160 288C160 320 176 336 192 336C208 336 224 320 224 288C224 256 192 224 192 224Z" fill="#ffffff"/>
  <path d="M320 224C320 224 352 256 352 288C352 320 336 336 320 336C304 336 288 320 288 288C288 256 320 224 320 224Z" fill="#ffffff"/>
  <circle cx="256" cy="224" r="21" fill="#16a34a"/>
  <circle cx="256" cy="384" r="11" fill="#16a34a"/>
  <circle cx="192" cy="288" r="11" fill="#16a34a"/>
  <circle cx="320" cy="288" r="11" fill="#16a34a"/>
</svg>